# Blender 4.1.1
# www.blender.org
mtllib awa2.mtl
o Cube.036
v 31.621277 41.336868 45.160294
v 31.685425 41.590240 45.143875
v 23.487305 42.874237 47.008408
v 23.585114 43.293091 47.000626
v 31.672668 41.316925 44.733719
v 31.772858 41.746048 44.725693
v 23.538666 42.854294 46.581802
v 23.636475 43.273132 46.573990
v 31.775940 41.543564 44.381302
v 31.719666 41.299164 44.370377
v 24.157074 43.456985 41.701950
v 24.059265 43.038147 41.709763
v 24.218567 43.433517 41.214188
v 24.120789 43.014725 41.222000
v 27.598175 42.293396 46.080856
v 27.679108 42.629486 46.068741
v 27.649567 42.273438 45.654221
v 27.748535 42.697418 45.646347
v 28.006378 42.475189 42.795059
v 27.981720 42.608871 43.219833
v 27.887848 42.172623 43.231613
v 27.937775 42.152756 42.791519
v 15.627777 45.384064 38.248917
v 15.529968 44.965256 38.256729
v 15.689178 45.360641 37.761185
v 15.591370 44.941818 37.768997
v 14.525757 44.612488 48.724258
v 14.427948 44.193665 48.732071
v 14.479309 44.173721 48.305466
v 14.577118 44.592514 48.297653
vn 0.2172 -0.0256 0.9758
vn -0.1834 0.0245 -0.9827
vn -0.2157 0.0321 -0.9759
vn 0.2934 0.9088 0.2967
vn 0.2812 0.9498 -0.1370
vn -0.2273 -0.9737 0.0181
vn -0.3480 0.0993 0.9322
vn 0.3634 -0.0869 -0.9275
vn 0.1664 0.9829 0.0792
vn 0.2222 -0.0075 0.9750
vn 0.3741 -0.0587 -0.9255
vn -0.3477 0.0993 0.9323
vn 0.3534 0.8618 -0.3640
vn -0.9658 0.2231 -0.1323
vn 0.3539 -0.1000 -0.9299
vn 0.2273 0.9737 -0.0182
vn -0.3539 0.0999 0.9299
vn -0.9665 0.2233 -0.1269
vn -0.1385 -0.9899 0.0296
vn 0.1385 0.9899 -0.0297
vn 0.1834 -0.0245 0.9827
vt 0.375000 0.125000
vt 0.625000 0.125000
vt 0.625000 0.250000
vt 0.375000 0.250000
vt 0.625000 0.500000
vt 0.375000 0.500000
vt 0.375000 0.625000
vt 0.625000 0.625000
vt 0.625000 0.750000
vt 0.375000 0.750000
vt 0.875000 0.625000
vt 0.875000 0.750000
vt 0.625000 0.750000
vt 0.625000 0.750000
vt 0.000000 0.000000
vt 0.875000 0.500000
vt 0.375000 0.000000
vt 0.625000 0.000000
s 0
usemtl Material.159
f 15/1/1 16/2/1 4/3/1 3/4/1
f 8/5/2 7/6/2 29/6/2 30/5/2
f 17/7/3 18/8/3 6/9/3 5/10/3
f 18/8/4 16/11/4 2/12/4 6/9/4
f 20/13/5 19/14/5 13/9/5 11/9/5
f 14/15/6 12/15/6 24/15/6 26/15/6
f 21/10/7 20/13/7 11/9/7 12/10/7
f 19/14/8 22/10/8 14/10/8 13/9/8
f 8/5/9 4/16/9 16/11/9 18/8/9
f 7/6/3 8/5/3 18/8/3 17/7/3
f 1/17/10 2/18/10 16/2/10 15/1/10
f 9/9/11 10/10/11 22/10/11 19/14/11
f 5/10/12 6/9/12 20/13/12 21/10/12
f 6/9/13 9/9/13 19/14/13 20/13/13
f 24/10/14 23/9/14 25/9/14 26/10/14
f 13/9/15 14/10/15 26/10/15 25/9/15
f 11/9/16 13/9/16 25/9/16 23/9/16
f 12/10/17 11/9/17 23/9/17 24/10/17
f 28/4/18 27/3/18 30/5/18 29/6/18
f 7/15/19 3/15/19 28/15/19 29/15/19
f 4/16/20 8/5/20 30/5/20 27/16/20
f 3/4/21 4/3/21 27/3/21 28/4/21
o Cube.037
v 46.160309 35.452820 44.760895
v 45.849396 35.124435 44.738800
v 40.810883 38.266800 43.965668
v 40.707947 37.825974 43.973907
v 45.674744 35.641388 48.792084
v 45.363861 35.312988 48.770050
v 40.325348 38.455353 47.996948
v 40.222412 38.014557 48.005188
v 41.905640 37.168274 48.247437
v 42.701996 37.308090 44.238281
v 42.216492 37.496643 48.269501
v 42.391174 36.979721 44.216187
v 38.027008 38.860229 47.701141
v 38.129944 39.301025 47.692932
v 38.615448 39.112488 43.661713
v 38.512543 38.671692 43.669891
v 35.845795 39.668350 47.400696
v 35.948730 40.109131 47.392426
v 36.434296 39.920578 43.361206
v 36.331360 39.479767 43.369446
v 46.089844 35.877167 48.412903
v 45.778931 35.548767 48.390778
v 40.476898 38.873138 47.577393
v 40.374023 38.432343 47.585663
v 46.035767 35.898163 48.861847
v 45.724854 35.569778 48.839783
v 40.422852 38.894150 48.026489
v 40.319946 38.453339 48.034668
v 42.197327 37.486908 48.305634
v 42.511688 37.836075 47.870636
v 42.457672 37.857071 48.319702
v 42.251404 37.465897 47.856567
v 38.124481 39.299042 47.730713
v 38.227417 39.739822 47.722504
v 38.281464 39.718842 47.273438
v 38.178558 39.278030 47.281708
v 35.943329 40.107101 47.430206
v 36.046265 40.547913 47.421967
v 36.100311 40.526917 46.972961
v 35.980560 40.013992 46.982544
v 46.529114 35.706573 44.765717
v 46.218231 35.378189 44.743591
v 40.916199 38.702545 43.930267
v 40.813324 38.261749 43.938507
v 46.475037 35.727585 45.214752
v 46.164124 35.399185 45.192688
v 40.862122 38.723541 44.379303
v 40.759216 38.282761 44.387543
v 42.636597 37.316315 44.658447
v 42.951019 37.665466 44.223450
v 42.896942 37.686478 44.672455
v 42.690704 37.295319 44.209412
v 38.563721 39.128433 44.083557
v 38.666656 39.569260 44.075378
v 38.720825 39.548233 43.626282
v 38.617889 39.107437 43.634521
v 36.382568 39.936493 43.783081
v 36.485504 40.377335 43.774811
v 36.539612 40.356339 43.325775
v 36.436707 39.915497 43.333984
v 31.152771 41.039948 48.380951
v 31.255676 41.480759 48.372711
v 32.110199 41.148911 41.277985
v 32.007294 40.708099 41.286255
v 31.263184 41.474960 48.368866
v 31.366089 41.915741 48.360596
v 31.420166 41.894775 47.911621
v 31.317230 41.453964 47.919830
v 32.059906 41.165344 41.742432
v 32.162842 41.606140 41.734222
v 32.216888 41.585144 41.285187
v 32.113983 41.144348 41.293427
v 45.606659 35.218704 46.754425
v 40.568176 38.361053 45.981323
v 40.465271 37.920273 45.989532
v 45.917511 35.547104 46.776489
v 42.148407 37.074005 46.231842
v 42.459320 37.402359 46.253937
v 38.372711 39.206741 45.677307
v 38.269775 38.765961 45.685547
v 36.191528 40.014847 45.376801
v 36.088623 39.574036 45.385040
v 31.693481 41.310730 44.737488
v 31.590546 40.869934 44.745697
v 24.504974 42.865051 38.081970
v 24.402039 42.424240 38.090210
v 23.964142 42.594269 41.725555
v 24.067078 43.035080 41.717346
v 22.991089 42.583664 50.221619
v 23.094025 43.024460 50.213409
v 23.531860 42.854446 46.578094
v 23.428925 42.413620 46.586304
v 24.444061 42.883575 38.526611
v 24.546967 43.324371 38.518372
v 24.601105 43.303360 38.069366
v 24.498169 42.862595 38.077576
v 23.086548 43.022186 50.210632
v 23.189453 43.462982 50.202423
v 23.243561 43.441986 49.753448
v 23.140625 43.001175 49.761658
v 27.115784 41.999649 49.297821
v 27.218719 42.440445 49.289612
v 27.656555 42.270416 45.654266
v 27.553619 41.829620 45.662506
v 28.215240 41.562073 39.600342
v 27.777405 41.732101 43.235596
v 28.318146 42.002869 39.592072
v 27.880310 42.172882 43.227356
v 28.317200 41.999115 39.592834
v 28.263153 42.020142 40.041870
v 28.420135 42.439926 39.584625
v 28.366058 42.460938 40.033630
v 27.218658 42.436401 49.286255
v 27.321594 42.877213 49.278046
v 27.272827 42.415390 48.837219
v 27.375671 42.856201 48.828949
v 15.975616 44.792145 34.628998
v 15.872711 44.351334 34.637268
v 15.434814 44.521378 38.272522
v 15.537750 44.962173 38.264282
v 15.914764 44.810669 35.073578
v 16.017700 45.251480 35.065338
v 16.071716 45.230484 34.616364
v 15.968811 44.789673 34.624603
v 13.931702 43.903061 51.945251
v 14.034637 44.343872 51.937042
v 14.472473 44.173859 48.301758
v 14.369537 43.733047 48.309967
v 14.027130 44.341599 51.934296
v 14.130066 44.782394 51.926086
v 14.184174 44.761398 51.477112
v 14.081207 44.320587 51.485352
vn 0.4507 0.8926 0.0125
vn -0.1195 0.0464 0.9918
vn -0.1230 0.0498 0.9912
vn -0.4478 -0.8941 -0.0121
vn 0.1194 -0.0464 -0.9918
vn 0.7171 -0.6868 0.1185
vn 0.1230 -0.0498 -0.9912
vn -0.4709 -0.8821 -0.0155
vn -0.1194 0.0464 0.9918
vn 0.4709 0.8821 0.0155
vn -0.3477 -0.9376 0.0020
vn -0.3595 -0.9331 0.0004
vn 0.3595 0.9331 -0.0004
vn 0.1195 -0.0464 -0.9918
vn -0.2783 -0.9604 0.0114
vn 0.3477 0.9376 -0.0020
vn 0.4526 0.8916 0.0128
vn -0.1231 0.0495 0.9912
vn -0.4561 -0.8898 -0.0134
vn 0.1193 -0.0463 -0.9918
vn 0.7170 -0.6869 0.1185
vn 0.1232 -0.0494 -0.9912
vn -0.4756 -0.8795 -0.0162
vn -0.1193 0.0464 0.9918
vn 0.4782 0.8781 0.0165
vn -0.3416 -0.9361 0.0843
vn -0.3595 -0.9331 0.0003
vn 0.2784 0.9604 -0.0114
vn -0.1232 0.0496 0.9911
vn -0.4561 -0.8898 -0.0133
vn 0.7171 -0.6868 0.1186
vn -0.4756 -0.8795 -0.0161
vn -0.3476 -0.9376 0.0019
vn 0.3595 0.9332 -0.0003
vn 0.1194 -0.0465 -0.9918
vn -0.3985 0.1101 0.9105
vn 0.2142 -0.0318 0.9763
vn 0.4054 -0.1117 -0.9073
vn 0.2783 0.9604 -0.0114
vn 0.1966 -0.0276 0.9801
vn 0.2139 -0.0318 0.9763
vn 0.1893 -0.0259 0.9816
vn -0.2690 -0.9585 0.0946
vn -0.1893 0.0258 -0.9816
vn -0.2273 -0.9736 0.0182
vn -0.2784 -0.9604 0.0113
vn 0.3986 -0.1100 -0.9105
vn 0.3595 0.9331 -0.0003
vn -0.3476 -0.9376 0.0020
vn 0.4709 0.8821 0.0154
vn -0.3539 0.1000 0.9299
vn 0.3471 -0.0984 -0.9327
vn 0.2273 0.9736 -0.0182
vn -0.3471 0.0985 0.9327
vn 0.1385 0.9899 -0.0296
vn -0.2142 0.0318 -0.9763
vn 0.1335 0.9906 -0.0303
vn -0.1335 -0.9906 0.0303
vn 0.2273 0.9737 -0.0182
vn 0.3477 -0.0986 -0.9324
vn -0.3477 0.0985 0.9324
vn 0.1834 -0.0245 0.9827
vn -0.1337 -0.9906 0.0303
vn -0.2139 0.0317 -0.9763
vn 0.1337 0.9906 -0.0302
vn -0.3471 0.0985 0.9326
vn 0.3838 -0.1067 -0.9172
vn -0.3862 0.1073 0.9161
vn 0.2273 0.9737 -0.0181
vn 0.3862 -0.1073 -0.9162
vn 0.2274 0.9736 -0.0181
vn -0.9665 0.2233 -0.1269
vn -0.9665 0.2233 -0.1268
vn -0.2273 -0.9736 0.0181
vn 0.3539 -0.1000 -0.9299
vn -0.1834 0.0246 -0.9827
vn -0.1385 -0.9899 0.0296
vn -0.1834 0.0245 -0.9827
vt 0.750000 0.625000
vt 0.875000 0.625000
vt 0.875000 0.750000
vt 0.750000 0.750000
vt 0.625000 0.000000
vt 0.375000 0.000000
vt 0.375000 0.125000
vt 0.625000 0.125000
vt 0.625000 0.250000
vt 0.375000 0.250000
vt 0.250000 0.625000
vt 0.375000 0.625000
vt 0.375000 0.750000
vt 0.250000 0.750000
vt 0.625000 0.625000
vt 0.625000 0.750000
vt 0.375000 0.375000
vt 0.625000 0.375000
vt 0.625000 0.500000
vt 0.375000 0.500000
vt 0.250000 0.500000
vt 0.750000 0.500000
vt 0.875000 0.500000
vt 0.250000 0.750000
vt 0.125000 0.625000
vt 0.125000 0.750000
vt 0.125000 0.500000
vt 0.375000 0.750000
vt 0.625000 0.750000
vt 0.625000 0.875000
vt 0.375000 0.875000
vt 0.125000 0.750000
vt 0.125000 0.750000
vt 0.875000 0.750000
vt 0.625000 1.000000
vt 0.375000 1.000000
s 0
usemtl Material.160
f 108/19/22 104/22/22 37/21/22 41/20/22
f 37/23/23 44/23/23 43/24/23 38/24/23
f 39/25/24 36/28/24 35/27/24 41/26/24
f 107/29/25 105/32/25 34/31/25 42/30/25
f 42/30/26 34/31/26 33/34/26 40/33/26
f 103/35/27 32/38/27 31/37/27 106/36/27
f 32/38/28 42/30/28 40/33/28 31/37/28
f 103/39/29 107/29/29 42/30/29 32/38/29
f 38/24/30 39/25/30 41/26/30 37/23/30
f 106/40/31 108/19/31 41/20/31 35/41/31
f 110/32/32 112/42/32 50/31/32 46/31/32
f 105/32/33 110/32/33 46/31/33 34/31/33
f 104/22/34 109/22/34 44/21/34 37/21/34
f 34/31/35 46/31/35 45/34/35 33/34/35
f 112/42/36 114/32/36 94/31/36 50/31/36
f 46/31/26 50/31/26 49/34/26 45/34/26
f 109/22/37 111/22/37 48/21/37 44/21/37
f 44/23/30 48/23/30 47/24/30 43/24/30
f 132/23/58 120/23/58 119/24/58 131/24/58
f 50/31/59 94/31/59 93/34/59 49/34/59
f 111/22/60 113/22/60 92/21/60 48/21/60
f 48/23/61 92/23/61 91/24/61 47/24/61
f 49/34/60 93/34/60 113/22/60 111/22/60
f 136/32/66 117/32/66 116/31/66 135/46/66
f 45/34/37 49/34/37 111/22/37 109/22/37
f 47/44/36 91/44/36 114/32/36 112/42/36
f 33/34/69 45/34/69 109/22/69 104/22/69
f 38/44/48 43/44/48 110/32/48 105/32/48
f 43/44/70 47/44/70 112/42/70 110/32/70
f 31/37/71 40/33/71 108/19/71 106/40/71
f 36/45/29 39/43/29 107/29/29 103/39/29
f 36/28/27 103/35/27 106/36/27 35/27/27
f 39/43/25 38/44/25 105/32/25 107/29/25
f 40/33/22 33/34/22 104/22/22 108/19/22
f 135/46/73 116/31/73 115/34/73 137/47/73
f 137/47/74 115/34/74 118/22/74 138/22/74
f 138/48/75 118/48/75 117/49/75 136/49/75
f 134/49/77 122/49/77 121/48/77 133/48/77
f 133/22/78 121/22/78 120/21/78 132/21/78
f 131/50/79 119/44/79 122/32/79 134/32/79
f 120/23/83 156/23/83 155/24/83 119/24/83
f 91/44/66 131/50/66 134/32/66 114/32/66
f 113/22/74 133/22/74 132/21/74 92/21/74
f 114/49/77 134/49/77 133/48/77 113/48/77
f 92/23/58 132/23/58 131/24/58 91/24/58
f 113/48/87 138/48/87 136/49/87 114/49/87
f 93/34/74 137/47/74 138/22/74 113/22/74
f 94/31/88 135/46/88 137/47/88 93/34/88
f 114/32/66 136/32/66 135/46/66 94/31/66
f 148/31/93 149/49/93 150/48/93 147/34/93
f 118/48/72 150/48/72 149/49/72 117/49/72
f 117/32/66 149/32/66 148/31/66 116/31/66
f 115/34/74 147/34/74 150/22/74 118/22/74
f 116/31/96 148/31/96 147/34/96 115/34/96
f 158/49/94 155/54/94 156/53/94 157/48/94
f 122/49/97 158/49/97 157/48/97 121/48/97
f 121/22/76 157/22/76 156/21/76 120/21/76
f 119/44/98 155/44/98 158/32/98 122/32/98
usemtl Material.161
f 60/33/38 53/34/38 57/21/38 61/20/38
f 57/23/23 64/23/23 63/24/23 58/24/23
f 59/25/39 56/28/39 55/27/39 61/26/39
f 59/43/40 58/44/40 54/31/40 62/30/40
f 62/30/41 54/31/41 53/34/41 60/33/41
f 56/28/42 52/38/42 51/37/42 55/27/42
f 52/38/43 62/30/43 60/33/43 51/37/43
f 56/45/44 59/43/44 62/30/44 52/38/44
f 58/24/45 59/25/45 61/26/45 57/23/45
f 51/37/46 60/33/46 61/20/46 55/41/46
f 63/44/47 67/44/47 70/31/47 66/31/47
f 58/44/48 63/44/48 66/31/48 54/31/48
f 53/34/34 65/34/34 64/21/34 57/21/34
f 54/31/26 66/31/26 65/34/26 53/34/26
f 69/34/49 97/34/49 96/21/49 68/21/49
f 66/31/26 70/31/26 69/34/26 65/34/26
f 65/34/37 69/34/37 68/21/37 64/21/37
f 64/23/30 68/23/30 67/24/30 63/24/30
f 144/23/62 128/23/62 127/24/62 143/24/62
f 68/23/63 96/23/63 95/24/63 67/24/63
f 67/44/64 95/44/64 98/31/64 70/31/64
f 70/31/65 98/31/65 97/34/65 69/34/65
f 129/34/76 161/34/76 160/21/76 128/21/76
f 143/51/84 127/44/84 130/31/84 145/31/84
f 145/31/85 130/31/85 129/34/85 146/34/85
f 146/34/86 129/34/86 128/21/86 144/52/86
f 97/34/92 146/34/92 144/52/92 96/21/92
f 98/31/85 145/31/85 146/34/85 97/34/85
f 95/44/66 143/51/66 145/31/66 98/31/66
f 96/23/62 144/23/62 143/24/62 95/24/62
f 162/31/93 159/54/93 160/53/93 161/34/93
f 128/23/83 160/23/83 159/24/83 127/24/83
f 127/44/98 159/44/98 162/31/98 130/31/98
f 130/31/99 162/31/99 161/34/99 129/34/99
usemtl Material.162
f 80/33/38 73/34/38 77/21/38 81/20/38
f 77/23/30 84/23/30 83/24/30 78/24/30
f 79/25/50 76/28/50 75/27/50 81/26/50
f 79/43/51 78/44/51 74/31/51 82/30/51
f 82/30/41 74/31/41 73/34/41 80/33/41
f 76/28/52 72/38/52 71/37/52 75/27/52
f 72/38/43 82/30/43 80/33/43 71/37/43
f 76/45/53 79/43/53 82/30/53 72/38/53
f 78/24/45 79/25/45 81/26/45 77/23/45
f 71/37/46 80/33/46 81/20/46 75/41/46
f 83/44/54 87/44/54 90/31/54 86/31/54
f 78/44/48 83/44/48 86/31/48 74/31/48
f 73/34/55 85/34/55 84/21/55 77/21/55
f 74/31/56 86/31/56 85/34/56 73/34/56
f 88/23/57 100/23/57 99/24/57 87/24/57
f 86/31/26 90/31/26 89/34/26 85/34/26
f 85/34/37 89/34/37 88/21/37 84/21/37
f 84/23/23 88/23/23 87/24/23 83/24/23
f 140/44/66 123/44/66 126/31/66 139/31/66
f 87/44/67 99/44/67 102/31/67 90/31/67
f 90/31/68 102/31/68 101/34/68 89/34/68
f 89/34/49 101/34/49 100/21/49 88/21/49
f 124/23/72 152/23/72 151/24/72 123/24/72
f 125/34/80 153/34/80 152/21/80 124/21/80
f 139/31/81 126/31/81 125/34/81 141/34/81
f 141/34/80 125/34/80 124/21/80 142/21/80
f 142/23/82 124/23/82 123/24/82 140/24/82
f 100/23/89 142/23/89 140/24/89 99/24/89
f 101/34/90 141/34/90 142/21/90 100/21/90
f 102/31/91 139/31/91 141/34/91 101/34/91
f 99/44/66 140/44/66 139/31/66 102/31/66
f 154/31/94 151/54/94 152/53/94 153/34/94
f 123/44/95 151/44/95 154/31/95 126/31/95
f 126/31/96 154/31/96 153/34/96 125/34/96
o Cone.005
v 32.885559 41.037781 44.925797
v 31.577301 41.639359 45.171982
v 31.690948 41.586166 44.336349
v 31.527466 41.926926 44.717667
v 32.841827 40.842285 44.867386
v 31.710327 41.296875 44.365402
v 32.915863 40.824814 44.952927
v 31.580994 41.345261 45.171432
vn 0.4419 0.7791 0.4447
vn -0.4176 -0.9086 0.0010
vn -0.9377 -0.3308 -0.1065
vn 0.5414 0.7288 -0.4192
vn 0.4361 0.0326 -0.8993
vn -0.1993 -0.0646 -0.9778
vt 0.250000 0.490000
vt 0.250000 0.250000
vt 0.457846 0.130000
vt 0.750000 0.490000
vt 0.957846 0.130000
vt 0.542154 0.130000
vt 0.042154 0.130000
s 0
usemtl Material.167
f 163/55/100 166/56/100 164/57/100
f 163/58/101 164/59/101 165/60/101
f 164/57/102 166/56/102 165/61/102
f 165/61/103 166/56/103 163/55/103
f 165/60/104 163/58/104 167/58/104 168/60/104
f 164/57/105 163/55/105 169/55/105 170/57/105
