# Blender 4.1.1
# www.blender.org
mtllib piedra_.mtl
o Cube.009
v 9.161919 30.236259 31.543427
v 11.640752 32.179810 32.113956
v 9.322550 31.452063 34.299294
v 6.096253 29.339909 33.856758
v 4.959618 30.915279 36.101982
v -0.856767 30.642208 37.277714
v -0.953036 28.991791 35.722748
v 5.221640 29.232302 34.218132
v 4.677147 28.777285 31.255775
v 5.197215 29.047436 33.799095
v -1.074875 28.069599 33.632412
v -1.205774 28.000612 31.289989
v -8.853914 29.037951 36.162903
v -8.757645 30.688368 37.717869
v -14.665052 31.029934 37.195263
v -15.154280 29.351347 35.353264
v -19.194664 31.618671 35.887974
v -21.732616 32.374790 33.973171
v -19.355295 30.402868 33.132107
v -16.062305 29.469368 35.091198
v -8.975754 28.115759 34.072567
v -15.178704 29.166479 34.934227
v -14.947523 28.891941 32.349056
v -9.106651 28.046772 31.730143
v 8.954710 33.935932 27.435987
v 11.492661 33.179813 29.350792
v 9.013826 31.236263 28.780264
v 5.714333 31.918865 26.730717
v 4.529055 29.777290 28.492615
v -1.353865 29.000616 28.526827
v -1.442715 30.553471 26.769106
v 4.815294 31.626392 26.673054
v 4.425098 34.524670 26.128700
v 4.806306 32.036884 26.468651
v -1.487555 32.601181 25.749466
v -1.482309 34.866238 25.606096
v -19.503387 31.402874 30.368944
v -21.880707 33.374794 31.210007
v -19.562504 34.102543 29.024670
v -16.444227 32.048325 27.965160
v -15.199572 34.639324 27.221981
v -9.383187 34.912395 26.046249
v -9.388433 32.647343 26.189621
v -15.569613 32.155930 27.603785
v -15.095615 29.891945 29.585896
v -15.560625 31.745438 27.808186
v -9.343594 30.599630 27.209259
v -9.254744 29.046776 28.966980
v 9.390963 34.090771 35.250591
v 11.709165 34.818520 33.065254
v 9.331846 36.790440 33.906315
v 6.272686 36.144989 36.310101
v 4.924074 38.301369 34.689365
v -0.916797 39.146538 35.308281
v -0.827948 37.593681 37.066002
v 5.389084 36.447876 36.467075
v 5.028030 33.553989 37.053280
v 5.398072 36.037384 36.671478
v -0.783108 35.545971 38.085640
v -0.788354 33.280918 38.229012
v -19.185368 36.957050 35.494999
v -21.664204 35.013500 34.924469
v -19.126251 34.257381 36.839272
v -15.885874 36.274448 37.544544
v -14.596640 33.668644 38.146561
v -8.689233 33.327076 38.669167
v -8.683986 35.592133 38.525795
v -14.977847 36.156429 37.806610
v -14.700596 38.416023 35.782646
v -14.986835 36.566921 37.602207
v -8.728827 37.639843 37.506157
v -8.817676 39.192696 35.748436
v 9.183754 37.790447 31.143154
v 11.561074 35.818523 30.302092
v 9.023123 36.574642 28.387287
v 5.890765 38.723946 29.184061
v 4.493511 37.163380 27.079998
v -1.413896 37.504944 26.557394
v -1.317627 39.155365 28.112358
v 4.982738 38.841969 28.921997
v 4.775982 39.301373 31.926203
v 5.007163 39.026833 29.341034
v -1.195788 40.077557 30.202696
v -1.064889 40.146542 32.545116
v -19.494091 36.741253 29.975967
v -21.812294 36.013504 32.161304
v -19.333460 37.957054 32.731834
v -16.267796 38.853405 30.418505
v -14.848688 39.416031 33.019485
v -8.965768 40.192703 32.985271
v -9.096666 40.123714 30.642849
v -15.368756 39.145878 30.476168
v -15.131159 37.278034 28.173279
v -15.393181 38.961010 30.057129
v -9.218506 39.201523 28.552513
v -9.314774 37.551105 26.997547
vn -0.0244 -0.9405 -0.3390
vn -0.3107 0.8883 0.3381
vn 0.3008 0.3165 -0.8996
vn -0.2316 -0.8850 0.4039
vn -0.2989 -0.4306 -0.8516
vn 0.9984 -0.0058 -0.0556
vn -0.3008 -0.3165 0.8996
vn -0.0524 -0.4460 -0.8935
vn -0.3951 0.3206 -0.8609
vn 0.3566 0.8844 0.3010
vn 0.2316 0.8850 -0.4039
vn -0.0171 0.9152 -0.4027
vn 0.2647 -0.8879 0.3763
vn 0.0503 -0.3399 0.9391
vn -0.9984 0.0058 0.0556
vn -0.0503 0.3399 -0.9391
vn 0.1974 -0.4335 -0.8793
vn 0.2989 0.4306 0.8516
vn -0.2647 0.8879 -0.3763
vn 0.0524 0.4460 0.8935
vn -0.1974 0.4335 0.8793
vn 0.0244 0.9405 0.3390
vn 0.0171 -0.9152 0.4027
vn -0.3566 -0.8844 -0.3010
vn 0.3951 -0.3206 0.8609
vn 0.5098 -0.7977 0.3222
vn 0.1840 -0.7013 0.6887
vn 0.1422 -0.9886 0.0497
vn -0.1145 -0.6996 0.7053
vn -0.4802 -0.7919 0.3773
vn -0.1473 -0.9869 0.0658
vn 0.4495 -0.3903 -0.8035
vn 0.1029 -0.7236 -0.6825
vn 0.0939 -0.0934 -0.9912
vn -0.5405 -0.3845 -0.7484
vn -0.2045 -0.0916 -0.9746
vn -0.1865 -0.7219 -0.6664
vn 0.5405 0.3845 0.7484
vn 0.1865 0.7219 0.6664
vn 0.2045 0.0916 0.9746
vn -0.4495 0.3903 0.8035
vn -0.0939 0.0934 0.9912
vn -0.1029 0.7236 0.6825
vn 0.4802 0.7919 -0.3773
vn 0.1145 0.6996 -0.7053
vn 0.1473 0.9869 -0.0658
vn -0.5098 0.7977 -0.3222
vn -0.1422 0.9886 -0.0497
vn -0.1840 0.7013 -0.6887
vn 0.3069 -0.9510 0.0383
vn 0.3516 -0.6733 0.6504
vn 0.1314 -0.9098 0.3937
vn -0.0974 -0.9085 0.4065
vn -0.2850 -0.6696 0.6859
vn -0.3118 -0.9474 0.0727
vn 0.2653 -0.0905 -0.9599
vn 0.2692 -0.6963 -0.6653
vn 0.0624 -0.4438 -0.8940
vn -0.3495 -0.6927 -0.6308
vn -0.3713 -0.0868 -0.9245
vn -0.1664 -0.4424 -0.8812
vn 0.3713 0.0868 0.9245
vn 0.3495 0.6927 0.6308
vn 0.1664 0.4424 0.8812
vn -0.2692 0.6963 0.6653
vn -0.2653 0.0905 0.9599
vn -0.0624 0.4438 0.8940
vn 0.3118 0.9474 -0.0727
vn 0.2850 0.6696 -0.6859
vn 0.0974 0.9085 -0.4065
vn -0.3516 0.6733 -0.6504
vn -0.3069 0.9510 -0.0383
vn -0.1314 0.9098 -0.3937
vn 0.6308 -0.7182 -0.2937
vn 0.1210 -0.9313 -0.3435
vn 0.0365 -0.6864 0.7263
vn -0.0042 -0.9996 0.0297
vn -0.6678 -0.7107 -0.2214
vn -0.1692 -0.9296 -0.3274
vn -0.0559 -0.0629 -0.9965
vn -0.0412 -0.7498 -0.6604
vn 0.6295 0.2490 -0.7360
vn 0.1022 0.3350 -0.9366
vn -0.7044 0.2568 -0.6617
vn -0.2017 0.3368 -0.9197
vn 0.0042 0.9996 -0.0297
vn -0.0365 0.6864 -0.7263
vn 0.6678 0.7107 0.2214
vn 0.1692 0.9296 0.3274
vn -0.6308 0.7182 0.2937
vn -0.1210 0.9313 0.3435
vn 0.0559 0.0629 0.9965
vn 0.0412 0.7498 0.6604
vn 0.7044 -0.2568 0.6617
vn 0.2017 -0.3368 0.9197
vn -0.6295 -0.2490 0.7360
vn -0.1022 -0.3350 0.9366
vn 0.3107 -0.8883 -0.3381
vt 0.470407 0.095407
vt 0.529593 0.095407
vt 0.529593 0.154593
vt 0.470407 0.154593
vt 0.658307 0.595407
vt 0.658307 0.654593
vt 0.591693 0.654593
vt 0.591693 0.595407
vt 0.279593 0.551496
vt 0.220407 0.551496
vt 0.220407 0.518189
vt 0.279593 0.518189
vt 0.576318 0.042005
vt 0.582995 0.048682
vt 0.576318 0.048682
vt 0.582995 0.201318
vt 0.576318 0.207995
vt 0.576318 0.201318
vt 0.220407 0.595407
vt 0.279593 0.595407
vt 0.279593 0.654593
vt 0.220407 0.654593
vt 0.606811 0.845407
vt 0.606811 0.904593
vt 0.573504 0.904593
vt 0.573504 0.845407
vt 0.529593 0.283307
vt 0.470407 0.283307
vt 0.470407 0.216693
vt 0.529593 0.216693
vt 0.606811 0.345407
vt 0.606811 0.404593
vt 0.573504 0.404593
vt 0.573504 0.345407
vt 0.341693 0.654593
vt 0.341693 0.595407
vt 0.408307 0.595407
vt 0.408307 0.654593
vt 0.326318 0.548682
vt 0.326318 0.542005
vt 0.332995 0.548682
vt 0.529593 0.533307
vt 0.470407 0.533307
vt 0.470407 0.466693
vt 0.529593 0.466693
vt 0.173682 0.701318
vt 0.173682 0.707995
vt 0.167005 0.701318
vt 0.470407 0.845407
vt 0.529593 0.845407
vt 0.529593 0.904593
vt 0.470407 0.904593
vt 0.720407 0.595407
vt 0.779593 0.595407
vt 0.779593 0.654593
vt 0.720407 0.654593
vt 0.470407 0.345407
vt 0.529593 0.345407
vt 0.529593 0.404593
vt 0.470407 0.404593
vt 0.173682 0.548682
vt 0.167005 0.548682
vt 0.173682 0.542005
vt 0.326318 0.701318
vt 0.332995 0.701318
vt 0.326318 0.707995
vt 0.582995 0.451318
vt 0.576318 0.457995
vt 0.576318 0.451318
vt 0.529593 0.783307
vt 0.470407 0.783307
vt 0.470407 0.716693
vt 0.529593 0.716693
vt 0.582995 0.798682
vt 0.576318 0.798682
vt 0.576318 0.792005
vt 0.470407 0.595407
vt 0.529593 0.595407
vt 0.529593 0.654593
vt 0.470407 0.654593
vt 0.470407 0.018189
vt 0.529593 0.018189
vt 0.529593 0.051496
vt 0.470407 0.051496
vt 0.606811 0.095407
vt 0.606811 0.154593
vt 0.573504 0.154593
vt 0.573504 0.095407
vt 0.220407 0.698504
vt 0.279593 0.698504
vt 0.279593 0.731811
vt 0.220407 0.731811
vt 0.176496 0.654593
vt 0.194685 0.731811
vt 0.194685 0.750000
vt 0.176496 0.731811
vt 0.143189 0.680315
vt 0.143189 0.698504
vt 0.125000 0.680315
vt 0.529593 0.000000
vt 0.555315 0.000000
vt 0.555315 0.031504
vt 0.606811 0.051496
vt 0.625000 0.069684
vt 0.606811 0.069684
vt 0.176496 0.595407
vt 0.143189 0.595407
vt 0.125000 0.595407
vt 0.125000 0.569685
vt 0.156504 0.569685
vt 0.194685 0.518189
vt 0.176496 0.518189
vt 0.194685 0.500000
vt 0.625000 0.154593
vt 0.625000 0.180315
vt 0.593496 0.180315
vt 0.555315 0.319684
vt 0.529593 0.319684
vt 0.555315 0.256677
vt 0.555315 0.180315
vt 0.555315 0.243323
vt 0.529593 0.180315
vt 0.279593 0.680315
vt 0.305315 0.680315
vt 0.305315 0.711819
vt 0.356811 0.680315
vt 0.375000 0.680315
vt 0.356811 0.698504
vt 0.305315 0.718496
vt 0.305315 0.750000
vt 0.279593 0.750000
vt 0.625000 0.819685
vt 0.625000 0.845407
vt 0.593496 0.819685
vt 0.555315 0.819684
vt 0.529593 0.819684
vt 0.555315 0.756677
vt 0.555315 0.680315
vt 0.555315 0.743323
vt 0.529593 0.680315
vt 0.305315 0.569685
vt 0.279593 0.569685
vt 0.305315 0.538181
vt 0.279593 0.500000
vt 0.305315 0.500000
vt 0.305315 0.531504
vt 0.381677 0.569685
vt 0.444684 0.569685
vt 0.444684 0.595407
vt 0.625000 0.404593
vt 0.625000 0.430315
vt 0.593496 0.430315
vt 0.555315 0.569685
vt 0.529593 0.569685
vt 0.555315 0.506677
vt 0.555315 0.430315
vt 0.555315 0.493323
vt 0.529593 0.430315
vt 0.143189 0.654593
vt 0.573504 0.018189
vt 0.143189 0.551496
vt 0.606811 0.198504
vt 0.573504 0.231811
vt 0.323504 0.680315
vt 0.323504 0.731811
vt 0.573504 0.768189
vt 0.606811 0.801496
vt 0.368323 0.569685
vt 0.323504 0.518189
vt 0.356811 0.551496
vt 0.618323 0.569685
vt 0.631677 0.569685
vt 0.125000 0.654593
vt 0.470407 0.000000
vt 0.625000 0.095407
vt 0.220407 0.500000
vt 0.625000 0.345407
vt 0.220407 0.750000
vt 0.625000 0.904593
s 0
f 12/1/1 24/2/1 48/3/1 30/4/1
f 87/5/2 61/6/2 69/7/2 89/8/2
f 75/9/3 25/10/3 33/11/3 77/12/3
f 16/13/4 20/14/4 22/15/4
f 40/16/5 44/17/5 46/18/5
f 26/19/6 74/20/6 50/21/6 2/22/6
f 63/23/7 17/24/7 15/25/7 65/26/7
f 43/27/8 35/28/8 31/29/8 47/30/8
f 39/31/9 85/32/9 93/33/9 41/34/9
f 51/35/10 73/36/10 81/37/10 53/38/10
f 76/39/11 80/40/11 82/41/11
f 91/42/12 83/43/12 79/44/12 95/45/12
f 4/46/13 8/47/13 10/48/13
f 60/49/14 66/50/14 14/51/14 6/52/14
f 86/53/15 38/54/15 18/55/15 62/56/15
f 36/57/16 42/58/16 96/59/16 78/60/16
f 28/61/17 32/62/17 34/63/17
f 52/64/18 56/65/18 58/66/18
f 88/67/19 92/68/19 94/69/19
f 67/70/20 59/71/20 55/72/20 71/73/20
f 64/74/21 68/75/21 70/76/21
f 84/77/22 90/78/22 72/79/22 54/80/22
f 7/81/23 13/82/23 21/83/23 11/84/23
f 19/85/24 37/86/24 45/87/24 23/88/24
f 3/89/25 49/90/25 57/91/25 5/92/25
f 1/93/26 2/22/26 3/89/26 4/46/26
f 5/94/27 6/95/27 7/96/27 8/47/27
f 9/97/28 10/48/28 11/98/28 12/99/28
f 13/82/29 14/100/29 15/101/29 16/102/29
f 17/103/30 18/104/30 19/105/30 20/14/30
f 21/83/31 22/15/31 23/88/31 24/2/31
f 25/10/32 26/19/32 27/106/32 28/61/32
f 29/107/33 30/108/33 31/109/33 32/110/33
f 33/111/34 34/63/34 35/112/34 36/113/34
f 37/86/35 38/114/35 39/115/35 40/116/35
f 41/117/36 42/118/36 43/27/36 44/119/36
f 45/120/37 46/121/37 47/30/37 48/122/37
f 49/90/38 50/123/38 51/124/38 52/125/38
f 53/126/39 54/127/39 55/128/39 56/65/39
f 57/91/40 58/129/40 59/130/40 60/131/40
f 61/132/41 62/133/41 63/23/41 64/134/41
f 65/135/42 66/136/42 67/70/42 68/137/42
f 69/138/43 70/139/43 71/73/43 72/140/43
f 73/141/44 74/142/44 75/9/44 76/143/44
f 77/12/45 78/144/45 79/145/45 80/146/45
f 81/37/46 82/147/46 83/148/46 84/149/46
f 85/32/47 86/150/47 87/151/47 88/152/47
f 89/153/48 90/154/48 91/42/48 92/155/48
f 93/156/49 94/157/49 95/45/49 96/158/49
f 9/159/50 1/93/50 4/46/50 10/48/50
f 3/89/51 5/92/51 8/47/51 4/46/51
f 7/96/52 11/98/52 10/48/52 8/47/52
f 21/83/53 13/82/53 16/13/53 22/15/53
f 15/160/54 17/103/54 20/14/54 16/13/54
f 19/85/55 23/88/55 22/15/55 20/14/55
f 33/11/56 25/10/56 28/61/56 34/63/56
f 27/106/57 29/107/57 32/62/57 28/61/57
f 31/161/58 35/112/58 34/63/58 32/62/58
f 45/87/59 37/86/59 40/16/59 46/18/59
f 39/162/60 41/163/60 44/17/60 40/16/60
f 43/27/61 47/30/61 46/121/61 44/119/61
f 57/91/62 49/90/62 52/64/62 58/66/62
f 51/164/63 53/126/63 56/65/63 52/64/63
f 55/128/64 59/165/64 58/66/64 56/65/64
f 69/166/65 61/167/65 64/74/65 70/76/65
f 63/23/66 65/26/66 68/75/66 64/74/66
f 67/70/67 71/73/67 70/139/67 68/137/67
f 81/37/68 73/36/68 76/168/68 82/147/68
f 75/9/69 77/12/69 80/40/69 76/39/69
f 79/169/70 83/170/70 82/41/70 80/40/70
f 93/33/71 85/32/71 88/67/71 94/69/71
f 87/5/72 89/8/72 92/171/72 88/172/72
f 91/42/73 95/45/73 94/157/73 92/155/73
f 26/19/74 2/22/74 1/93/74 27/106/74
f 12/173/75 30/108/75 29/107/75 9/159/75
f 6/174/76 14/100/76 13/82/76 7/81/76
f 24/2/77 12/1/77 11/84/77 21/83/77
f 18/175/78 38/114/78 37/86/78 19/85/78
f 48/3/79 24/2/79 23/88/79 45/87/79
f 42/58/80 36/57/80 35/28/80 43/27/80
f 30/4/81 48/3/81 47/30/81 31/29/81
f 74/20/82 26/19/82 25/10/82 75/9/82
f 36/176/83 78/144/83 77/12/83 33/11/83
f 38/177/84 86/150/84 85/32/84 39/31/84
f 96/59/85 42/58/85 41/34/85 93/33/85
f 90/78/86 84/77/86 83/43/86 91/42/86
f 78/60/87 96/59/87 95/45/87 79/44/87
f 50/21/88 74/20/88 73/36/88 51/35/88
f 84/77/89 54/80/89 53/38/89 81/37/89
f 86/53/90 62/56/90 61/6/90 87/5/90
f 72/79/91 90/78/91 89/8/91 69/7/91
f 66/50/92 60/49/92 59/71/92 67/70/92
f 54/80/93 72/79/93 71/73/93 55/72/93
f 2/22/94 50/21/94 49/90/94 3/89/94
f 60/131/95 6/178/95 5/92/95 57/91/95
f 62/133/96 18/179/96 17/24/96 63/23/96
f 14/51/97 66/50/97 65/26/97 15/25/97
f 27/106/98 1/93/98 9/159/98 29/107/98
