# Blender 4.1.1
# www.blender.org
mtllib puente 1.mtl
o Puente_completo.002
v -115.830032 35.329597 -76.826279
v -115.330063 34.697933 -76.450768
v -110.897232 39.752735 -72.888527
v -110.716324 38.891132 -72.766487
v -110.928024 35.467201 -83.121574
v -110.428047 34.835537 -82.746063
v -105.995224 39.890339 -79.183823
v -105.814308 39.028732 -79.061783
v -108.399742 37.292648 -81.112953
v -113.801735 37.786713 -75.193176
v -108.899719 37.924313 -81.488464
v -113.301758 37.155045 -74.817657
v -102.430069 40.785969 -76.388138
v -102.610985 41.647575 -76.510178
v -107.513000 41.509972 -70.214882
v -107.332092 40.648369 -70.092850
v -98.947906 41.904633 -73.652199
v -99.128815 42.766239 -73.774231
v -104.030830 42.628639 -67.478943
v -103.849922 41.767033 -67.356903
v -112.010048 35.938301 -82.921616
v -111.510071 35.306641 -82.546097
v -106.674797 40.730511 -78.662415
v -106.493889 39.868904 -78.540382
v -111.464058 35.953629 -83.622787
v -110.964081 35.321964 -83.247276
v -106.128807 40.745834 -79.363594
v -105.947899 39.884232 -79.241554
v -108.830994 37.903671 -81.528931
v -109.800079 38.604240 -81.141563
v -109.254089 38.619568 -81.842735
v -109.376984 37.888348 -80.827759
v -102.563660 41.641464 -76.567909
v -102.744568 42.503071 -76.689949
v -103.290558 42.487747 -75.988770
v -103.109650 41.626141 -75.866737
v -99.081497 42.760132 -73.831970
v -99.262405 43.621735 -73.954002
v -99.808395 43.606411 -73.252831
v -99.627487 42.744804 -73.130791
v -116.444992 35.813812 -77.226151
v -115.945015 35.182148 -76.850632
v -111.109741 40.606018 -72.966957
v -110.928833 39.744415 -72.844917
v -115.899002 35.829140 -77.927322
v -115.399025 35.197472 -77.551811
v -110.563751 40.621346 -73.668129
v -110.382843 39.759743 -73.546089
v -113.265938 37.779182 -75.833466
v -114.235016 38.479748 -75.446098
v -113.689026 38.495075 -76.147270
v -113.811928 37.763855 -75.132294
v -106.998604 41.516975 -70.872444
v -107.179512 42.378578 -70.994484
v -107.725502 42.363255 -70.293312
v -107.544594 41.501648 -70.171272
v -103.516434 42.635643 -68.136505
v -103.697342 43.497246 -68.258545
v -104.243332 43.481918 -67.557365
v -104.062424 42.620316 -67.435333
v -85.947937 43.492859 -63.496178
v -86.136230 42.640087 -63.661438
v -91.997383 44.387886 -68.187195
v -91.816475 43.526283 -68.065163
v -90.849953 43.355259 -57.200886
v -91.038239 42.502483 -57.366142
v -96.899399 44.250282 -61.891907
v -96.718491 43.388680 -61.769867
v -93.776833 43.428204 -59.478394
v -88.686531 44.418579 -65.608429
v -93.588547 44.280975 -59.313137
v -88.874817 43.565804 -65.773689
v -100.366318 42.886826 -64.621323
v -100.547226 43.748428 -64.743362
v -95.645203 43.886032 -71.038651
v -95.464294 43.024429 -70.916618
v -103.848480 41.768158 -67.357269
v -104.029396 42.629765 -67.479301
v -99.127380 42.767365 -73.774597
v -98.946472 41.905762 -73.652557
v -90.020401 44.143661 -57.594452
v -90.208679 43.290890 -57.759705
v -96.566620 45.118877 -62.670551
v -96.385712 44.257275 -62.548515
v -90.566391 44.128334 -56.893280
v -90.754669 43.275566 -57.058533
v -97.112610 45.103554 -61.969376
v -96.931702 44.241947 -61.847336
v -93.633774 44.246819 -59.280121
v -92.999802 45.142223 -59.893547
v -93.545792 45.126896 -59.192371
v -93.087784 44.262142 -59.981297
v -100.579529 43.740093 -64.698792
v -100.760437 44.601696 -64.820831
v -100.214447 44.617023 -65.522003
v -100.033539 43.755417 -65.399963
v -104.061699 42.621426 -67.434738
v -104.242607 43.483032 -67.556778
v -103.696617 43.498356 -68.257950
v -103.515709 42.636753 -68.135910
v -85.585457 44.268154 -63.289917
v -85.773743 43.415382 -63.455170
v -92.131683 45.243370 -68.366013
v -91.950775 44.381763 -68.243973
v -86.131447 44.252831 -62.588745
v -86.319733 43.400055 -62.753998
v -92.677673 45.228043 -67.664841
v -92.496765 44.366440 -67.542801
v -89.198837 44.371307 -64.975586
v -88.564857 45.266712 -65.589012
v -89.110847 45.251389 -64.887833
v -88.652847 44.386635 -65.676765
v -96.144585 43.864586 -70.394257
v -96.325500 44.726189 -70.516296
v -95.779510 44.741516 -71.217468
v -95.598595 43.879910 -71.095428
v -99.626755 42.745918 -73.130203
v -99.807663 43.607521 -73.252243
v -99.261681 43.622849 -73.953415
v -99.080772 42.761242 -73.831375
vn -0.3790 0.8833 -0.2758
vn 0.6143 0.0172 -0.7889
vn 0.3768 -0.8848 0.2740
vn -0.6143 -0.0172 0.7889
vn -0.5534 -0.7033 -0.4463
vn 0.5493 -0.7271 0.4118
vn -0.5493 0.7271 -0.4118
vn 0.2035 -0.9694 0.1373
vn 0.3076 -0.9259 0.2193
vn -0.3076 0.9259 -0.2193
vn 0.7624 0.2449 0.5990
vn -0.2035 0.9694 -0.1373
vn -0.3805 0.8823 -0.2770
vn 0.6144 0.0174 -0.7888
vn 0.3833 -0.8804 0.2792
vn -0.6142 -0.0172 0.7890
vn -0.6144 -0.0174 0.7888
vn 0.5490 -0.7275 0.4116
vn 0.6142 0.0172 -0.7890
vn -0.5480 0.7286 -0.4108
vn -0.0164 0.9998 0.0091
vn 0.0190 -0.9998 -0.0071
vn 0.7601 -0.2813 0.5857
vn -0.1938 -0.9658 -0.1720
vn 0.1938 0.9658 0.1720
vn 0.0956 -0.9940 0.0527
vn -0.0956 0.9940 -0.0527
vn -0.7624 -0.2449 -0.5990
vn -0.0147 0.9998 0.0104
vn -0.6144 -0.0172 0.7888
vn 0.0115 -0.9999 -0.0129
vn 0.6144 0.0172 -0.7888
vn -0.1934 -0.9660 -0.1717
vn 0.1921 0.9664 0.1707
vt 0.625000 0.625000
vt 0.875000 0.625000
vt 0.875000 0.750000
vt 0.625000 0.750000
vt 0.625000 0.000000
vt 0.375000 0.000000
vt 0.375000 0.125000
vt 0.625000 0.125000
vt 0.625000 0.250000
vt 0.375000 0.250000
vt 0.125000 0.625000
vt 0.375000 0.625000
vt 0.375000 0.750000
vt 0.125000 0.750000
vt 0.625000 0.500000
vt 0.375000 0.500000
vt 0.125000 0.500000
vt 0.875000 0.500000
vt 0.625000 1.000000
vt 0.375000 1.000000
s 0
usemtl Material.134
f 10/1/1 3/4/1 7/3/1 11/2/1
f 7/5/2 14/5/2 13/6/2 8/6/2
f 9/7/2 6/10/2 5/9/2 11/8/2
f 9/11/3 8/14/3 4/13/3 12/12/3
f 12/12/4 4/13/4 3/4/4 10/1/4
f 6/10/5 2/16/5 1/15/5 5/9/5
f 2/16/4 12/12/4 10/1/4 1/15/4
f 6/17/6 9/11/6 12/12/6 2/16/6
f 8/6/2 9/7/2 11/8/2 7/5/2
f 1/15/7 10/1/7 11/2/7 5/18/7
f 13/14/8 17/14/8 20/13/8 16/13/8
f 8/14/9 13/14/9 16/13/9 4/13/9
f 3/4/10 15/4/10 14/3/10 7/3/10
f 4/13/4 16/13/4 15/4/4 3/4/4
f 20/13/11 17/20/11 18/19/11 19/4/11
f 16/13/4 20/13/4 19/4/4 15/4/4
f 15/4/12 19/4/12 18/3/12 14/3/12
f 14/5/2 18/5/2 17/6/2 13/6/2
usemtl Material.135
f 30/1/13 23/4/13 27/3/13 31/2/13
f 27/5/2 34/5/2 33/6/2 28/6/2
f 29/7/14 26/10/14 25/9/14 31/8/14
f 29/11/15 28/14/15 24/13/15 32/12/15
f 32/12/16 24/13/16 23/4/16 30/1/16
f 26/10/5 22/16/5 21/15/5 25/9/5
f 22/16/17 32/12/17 30/1/17 21/15/17
f 26/17/18 29/11/18 32/12/18 22/16/18
f 28/6/19 29/7/19 31/8/19 27/5/19
f 21/15/20 30/1/20 31/2/20 25/18/20
f 33/14/8 37/14/8 40/13/8 36/13/8
f 28/14/9 33/14/9 36/13/9 24/13/9
f 23/4/10 35/4/10 34/3/10 27/3/10
f 24/13/4 36/13/4 35/4/4 23/4/4
f 40/13/11 37/20/11 38/19/11 39/4/11
f 36/13/4 40/13/4 39/4/4 35/4/4
f 35/4/12 39/4/12 38/3/12 34/3/12
f 34/5/2 38/5/2 37/6/2 33/6/2
usemtl Material.136
f 50/1/13 43/4/13 47/3/13 51/2/13
f 47/5/2 54/5/2 53/6/2 48/6/2
f 49/7/14 46/10/14 45/9/14 51/8/14
f 49/11/15 48/14/15 44/13/15 52/12/15
f 52/12/16 44/13/16 43/4/16 50/1/16
f 46/10/5 42/16/5 41/15/5 45/9/5
f 42/16/17 52/12/17 50/1/17 41/15/17
f 46/17/18 49/11/18 52/12/18 42/16/18
f 48/6/19 49/7/19 51/8/19 47/5/19
f 41/15/20 50/1/20 51/2/20 45/18/20
f 53/14/8 57/14/8 60/13/8 56/13/8
f 48/14/9 53/14/9 56/13/9 44/13/9
f 43/4/10 55/4/10 54/3/10 47/3/10
f 44/13/4 56/13/4 55/4/4 43/4/4
f 60/13/11 57/20/11 58/19/11 59/4/11
f 56/13/4 60/13/4 59/4/4 55/4/4
f 55/4/12 59/4/12 58/3/12 54/3/12
f 54/5/2 58/5/2 57/6/2 53/6/2
usemtl Material.137
f 70/1/21 63/4/21 67/3/21 71/2/21
f 67/5/4 74/5/4 73/6/4 68/6/4
f 69/7/4 66/10/4 65/9/4 71/8/4
f 69/11/22 68/14/22 64/13/22 72/12/22
f 72/12/2 64/13/2 63/4/2 70/1/2
f 66/10/23 62/16/23 61/15/23 65/9/23
f 62/16/2 72/12/2 70/1/2 61/15/2
f 66/17/24 69/11/24 72/12/24 62/16/24
f 68/6/4 69/7/4 71/8/4 67/5/4
f 61/15/25 70/1/25 71/2/25 65/18/25
f 73/14/8 77/14/8 80/13/8 76/13/8
f 68/14/26 73/14/26 76/13/26 64/13/26
f 63/4/27 75/4/27 74/3/27 67/3/27
f 64/13/2 76/13/2 75/4/2 63/4/2
f 80/13/28 77/20/28 78/19/28 79/4/28
f 76/13/2 80/13/2 79/4/2 75/4/2
f 75/4/12 79/4/12 78/3/12 74/3/12
f 74/5/4 78/5/4 77/6/4 73/6/4
usemtl Material.138
f 90/1/29 83/4/29 87/3/29 91/2/29
f 87/5/4 94/5/4 93/6/4 88/6/4
f 89/7/30 86/10/30 85/9/30 91/8/30
f 89/11/31 88/14/31 84/13/31 92/12/31
f 92/12/19 84/13/19 83/4/19 90/1/19
f 86/10/23 82/16/23 81/15/23 85/9/23
f 82/16/32 92/12/32 90/1/32 81/15/32
f 86/17/33 89/11/33 92/12/33 82/16/33
f 88/6/16 89/7/16 91/8/16 87/5/16
f 81/15/34 90/1/34 91/2/34 85/18/34
f 93/14/8 97/14/8 100/13/8 96/13/8
f 88/14/26 93/14/26 96/13/26 84/13/26
f 83/4/27 95/4/27 94/3/27 87/3/27
f 84/13/2 96/13/2 95/4/2 83/4/2
f 100/13/28 97/20/28 98/19/28 99/4/28
f 96/13/2 100/13/2 99/4/2 95/4/2
f 95/4/12 99/4/12 98/3/12 94/3/12
f 94/5/4 98/5/4 97/6/4 93/6/4
usemtl Material.139
f 110/1/29 103/4/29 107/3/29 111/2/29
f 107/5/4 114/5/4 113/6/4 108/6/4
f 109/7/30 106/10/30 105/9/30 111/8/30
f 109/11/31 108/14/31 104/13/31 112/12/31
f 112/12/19 104/13/19 103/4/19 110/1/19
f 106/10/23 102/16/23 101/15/23 105/9/23
f 102/16/32 112/12/32 110/1/32 101/15/32
f 106/17/33 109/11/33 112/12/33 102/16/33
f 108/6/16 109/7/16 111/8/16 107/5/16
f 101/15/34 110/1/34 111/2/34 105/18/34
f 113/14/8 117/14/8 120/13/8 116/13/8
f 108/14/26 113/14/26 116/13/26 104/13/26
f 103/4/27 115/4/27 114/3/27 107/3/27
f 104/13/2 116/13/2 115/4/2 103/4/2
f 120/13/28 117/20/28 118/19/28 119/4/28
f 116/13/2 120/13/2 119/4/2 115/4/2
f 115/4/12 119/4/12 118/3/12 114/3/12
f 114/5/4 118/5/4 117/6/4 113/6/4
